<?xml version="1.0" encoding="utf-8"?>
<!-- Generator: Adobe Illustrator 19.0.0, SVG Export Plug-In . SVG Version: 6.00 Build 0)  -->
<svg version="1.1" id="Warstwa_1" xmlns="http://www.w3.org/2000/svg" xmlns:xlink="http://www.w3.org/1999/xlink" x="0px" y="0px"
	 viewBox="0 0 367.9 420.9" style="enable-background:new 0 0 367.9 420.9;" xml:space="preserve">
<path id="XMLID_2_" d="M97.2,197.9c0.1,25,8.9,46.4,26.6,64.1s39.1,26.5,64.1,26.6c25.1,0,46.4-8.9,64.1-26.6
	c17.7-17.7,26.6-39.1,26.6-64.1c0-19.4-5.3-36.6-16-51.7c-4.7,6-9.2,12.1-13.1,18.7c5.4,9.9,8.1,20.9,8.1,33
	c0,19.2-6.8,35.6-20.4,49.2c-13.6,13.6-30,20.4-49.2,20.4l0,0c-19.2,0-35.6-6.7-49.3-20.3s-20.3-30-20.3-49.3
	c0-19.3,6.7-35.6,20.3-49.2c13.6-13.6,30-20.4,49.2-20.4c3.5-7,7.1-13.8,11-20.4c-3.6-0.4-7.2-0.6-10.9-0.7l0,0
	c-25,0-46.4,8.9-64.1,26.6C106.1,151.5,97.2,172.8,97.2,197.9z"/>
</svg>
