<?xml version="1.0" encoding="utf-8"?>
<!-- Generator: Adobe Illustrator 19.0.0, SVG Export Plug-In . SVG Version: 6.00 Build 0)  -->
<svg version="1.1" id="Warstwa_1" xmlns="http://www.w3.org/2000/svg" xmlns:xlink="http://www.w3.org/1999/xlink" x="0px" y="0px"
	 viewBox="0 0 595.3 841.9" style="enable-background:new 0 0 595.3 841.9;" xml:space="preserve">
<g>
	<path id="XMLID_3_" d="M207.2,382.2l0.1,0.6l9.7,10.5l-4.2,17.1c-0.7,2.5-0.8,5.2-0.6,7.9c1.1,16.3,7.2,30.4,18.6,42.4l12.3,8.2
		l-0.6,1.2l0.1,0.6l-89.8,154.1c-11.2,20.2-3.5,27.9,6.3,34.8c0,0,19.4,14.5,34.4-6.9l139.2-203.1c1.5-2.1,3-4,4.8-5.8
		c7.9-8.1,17.5-12.5,28.9-13.4c3.2-0.5,7,0.3,8.7,1.6c11.5,8.3,17.9,19.3,19.3,33.2c2.4,17-6.1,39.2-9.3,55.6
		c-1.8,9.3-5.7,19.4-6.1,29c-0.8,17.5,10.6,42.4,29.6,44.3c6.2,0.6,17.2-3.3,18.2-10.4c1.4-10.4,2.4-22.7,5.4-31.8
		c2.7-7.9,6.3-15.7,10.4-23.7c2.8-5.4,11.3-16,11-21.5c-0.3-5.9,3.8-14.9,4.8-20.4c2.4-13.3,4.8-29.8,10.3-42.2
		c5-24.6,19.1-47.5,22.2-73.8c3.6-30.4,5.2-60-4.8-90.1c-3.2-11.6-3.3-23-0.1-34.2l28.4-42.2C483.8,182.5,361.5,95.6,348,86.7
		l-23.4,37.2l0,0.7c-9.9,5.3-19.8,11-29.7,16.8c-7.8,4.6-14.9,9.9-21.5,16c-17.5,15.9-34.9,31.9-52.4,47.9c-3,2.9-6.3,5.7-9.7,8
		c-10.9,8.3-31.7,40.1-12.4,61.5c0.4,0.4,0.2,1,0.1,1.4c-5.4,15.9-8.6,32.4-9.2,49.2C189.4,345,195.3,366,207.2,382.2"/>
</g>
</svg>
